<svg width="225px" height="225px" viewBox="0 0 225 225" version="1.1" xmlns="http://www.w3.org/2000/svg" xmlns:xlink="http://www.w3.org/1999/xlink">
    <title>Group</title>
    <g id="Page-1" stroke="none" stroke-width="1" fill="none" fill-rule="evenodd">
        <g id="Group">
            <rect id="Rectangle" x="0" y="0" width="225" height="225"></rect>
            <path d="M185.459009,78.7438417 C191.555378,90.6087135 194.284174,103.917213 193.349009,117.223842 C192.952667,124.019277 191.627002,130.728351 189.409009,137.163842 C187.213942,143.687491 184.164062,149.891492 180.339009,155.613842 C172.580134,167.250679 161.955763,176.693799 149.489009,183.033842 C143.211245,186.177876 136.566956,188.529242 129.709009,190.033842 C122.831176,191.454616 115.807303,192.042177 108.789009,191.783842 C101.782379,191.456268 94.8431024,190.263895 88.1290088,188.233842 C87.2790088,187.993842 86.4590088,187.683842 85.6290088,187.393842 C84.7990088,187.103842 83.9690088,186.823842 83.1490088,186.513842 L80.7090088,185.513842 L79.4890088,185.013842 L78.2990088,184.453842 L75.9190088,183.343842 C75.1390088,182.953842 74.3690088,182.533842 73.5890088,182.133842 C72.0190088,181.343842 70.5890088,180.403842 69.0390088,179.503842 C63.1025096,175.802422 57.6562491,171.367465 52.8290088,166.303842 C48.0658986,161.251591 43.966195,155.612819 40.6290088,149.523842 C34.0303473,137.458793 30.7164499,123.872158 31.0190088,110.123842 C31.2463316,96.7829115 35.1382426,83.7614421 42.2690088,72.4838417 C40.1454095,78.5279445 38.68353,84.7845203 37.9090088,91.1438417 C37.1592837,97.3568186 37.1391467,103.636184 37.8490088,109.853842 C39.1612656,122.017741 43.3314023,133.698921 50.0190088,143.943842 C50.3990088,144.583842 50.8590088,145.183842 51.2790088,145.803842 C51.6990088,146.423842 52.1290088,147.043842 52.5890088,147.633842 C53.5190088,148.803842 54.3890088,150.023842 55.3890088,151.143842 L56.8290088,152.853842 L58.3490088,154.493842 L59.1090088,155.313842 L59.9090088,156.093842 L61.4990088,157.663842 C65.8360011,161.718197 70.6239984,165.261382 75.7690088,168.223842 C80.8863438,171.158647 86.3390791,173.465315 92.0090088,175.093842 C97.6618758,176.745316 103.494796,177.702358 109.379009,177.943842 C115.266016,178.205581 121.163358,177.772595 126.949009,176.653842 C132.737113,175.505128 138.371738,173.686208 143.739009,171.233842 L145.739009,170.233842 L146.739009,169.743842 L147.739009,169.213842 L149.689009,168.153842 L151.589009,167.003842 C152.869009,166.263842 154.059009,165.373842 155.309009,164.573842 C155.929009,164.153842 156.509009,163.693842 157.119009,163.263842 C157.729009,162.833842 158.329009,162.393842 158.889009,161.913842 C160.049009,160.973842 161.219009,160.043842 162.309009,159.033842 C162.859009,158.523842 163.439009,158.033842 163.959009,157.523842 L165.569009,155.953842 C166.119009,155.453842 166.569009,154.893842 167.129009,154.343842 C167.689009,153.793842 168.129009,153.263842 168.659009,152.703842 C169.659009,151.553842 170.659009,150.443842 171.539009,149.233842 L172.919009,147.453842 L174.219009,145.613842 L174.879009,144.693842 L175.489009,143.743842 L176.719009,141.833842 C178.287062,139.246979 179.712522,136.576328 180.989009,133.833842 C186.144749,122.513916 188.61566,110.155938 188.209009,97.7238417 C187.982575,91.3162384 187.060496,84.9522145 185.459009,78.7438417 Z" id="Path" fill="#0F2B85" fill-rule="nonzero"></path>
            <path d="M96.0690088,36.1538417 C106.772911,32.5589338 118.26821,32.0255575 129.259009,34.6138417 C132.061272,35.251294 134.82017,36.0662713 137.519009,37.0538417 C140.230707,38.0777823 142.872948,39.2769792 145.429009,40.6438417 C150.608617,43.3817088 155.39513,46.8059321 159.659009,50.8238417 C168.36243,58.9789105 174.79913,69.2541994 178.339009,80.6438417 C180.096215,86.3756899 181.127597,92.3052974 181.409009,98.2938417 C181.612758,104.288838 181.085543,110.286334 179.839009,116.153842 C178.551131,122.015211 176.535499,127.692572 173.839009,133.053842 C173.169009,134.393842 172.399009,135.683842 171.659009,136.993842 L170.469009,138.893842 L169.869009,139.893842 L169.229009,140.813842 L167.939009,142.653842 C167.489009,143.253842 167.029009,143.843842 166.569009,144.433842 C165.689009,145.643842 164.669009,146.743842 163.699009,147.873842 C159.680486,152.283204 155.121062,156.167282 150.129009,159.433842 C145.181714,162.681591 139.833678,165.273254 134.219009,167.143842 C123.131746,170.844886 111.260474,171.535076 99.8190088,169.143842 C88.7652216,166.922569 78.5515324,161.658138 70.3290088,153.943842 C75.1017912,156.470756 80.1301562,158.482102 85.3290088,159.943842 C90.3707077,161.358269 95.5578695,162.190362 100.789009,162.423842 C110.93487,162.927413 121.057865,161.050755 130.349009,156.943842 C130.929009,156.723842 131.479009,156.423842 132.039009,156.163842 C132.599009,155.903842 133.169009,155.633842 133.709009,155.343842 C134.799009,154.733842 135.909009,154.193842 136.959009,153.523842 C139.086216,152.267933 141.142662,150.895857 143.119009,149.413842 C147.01643,146.42415 150.5624,143.002307 153.689009,139.213842 C156.785683,135.453583 159.417988,131.333891 161.529009,126.943842 C163.665132,122.574989 165.257031,117.9605 166.269009,113.203842 C168.37801,103.659163 168.186059,93.7496862 165.709009,84.2938417 C164.454901,79.545912 162.656304,74.9588172 160.349009,70.6238417 C159.759009,69.5438417 159.169009,68.4538417 158.509009,67.4238417 C157.849009,66.3938417 157.159009,65.3438417 156.509009,64.3138417 C156.179009,63.7838417 155.789009,63.3138417 155.429009,62.7938417 C155.069009,62.2738417 154.699009,61.7938417 154.309009,61.3038417 C153.509009,60.3538417 152.769009,59.3538417 151.909009,58.4438417 L150.659009,57.0538417 L149.349009,55.7138417 C148.499009,54.7938417 147.549009,53.9838417 146.639009,53.1038417 C144.753889,51.4364326 142.78108,49.8708707 140.729009,48.4138417 C138.648584,46.9609557 136.488546,45.6255378 134.259009,44.4138417 C131.992204,43.1896883 129.654764,42.1011089 127.259009,41.1538417 C122.392166,39.1797606 117.316019,37.7672966 112.129009,36.9438417 C106.819059,36.1095777 101.435201,35.8447429 96.0690088,36.1538417 Z" id="Path" fill="#1C5AB5" fill-rule="nonzero"></path>
            <path d="M56.7090088,61.8238417 C62.2992476,54.2819015 69.9340521,48.5002722 78.7090088,45.1638417 C80.9218422,44.2774812 83.1899585,43.5359174 85.4990088,42.9438417 C87.854073,42.3860308 90.242225,41.9785419 92.6490088,41.7238417 C97.5223303,41.2041871 102.443525,41.3454654 107.279009,42.1438417 C117.146321,43.766032 126.418928,47.9369817 134.179009,54.2438417 C138.066164,57.444307 141.536579,61.1196547 144.509009,65.1838417 C147.425448,69.2946732 149.832996,73.7437685 151.679009,78.4338417 C153.472569,83.1494211 154.668541,88.0710468 155.239009,93.0838417 C155.379009,94.3338417 155.439009,95.5938417 155.519009,96.8438417 C155.599009,98.0938417 155.609009,99.3638417 155.519009,100.623842 L155.459009,102.503842 L155.319009,104.383842 C155.249009,105.633842 155.039009,106.873842 154.869009,108.113842 C154.096139,113.055318 152.694783,117.877732 150.699009,122.463842 C148.701988,127.004694 146.123765,131.266998 143.029009,135.143842 C136.940245,142.793619 128.906399,148.665303 119.769009,152.143842 C111.02314,155.529613 101.490192,156.338195 92.2990088,154.473842 C96.7017273,153.908613 101.03672,152.903591 105.239009,151.473842 C109.284748,150.083523 113.159561,148.238374 116.789009,145.973842 C123.82454,141.656676 129.768793,135.774022 134.159009,128.783842 C134.689009,127.933842 135.159009,127.063842 135.679009,126.193842 C136.199009,125.323842 136.629009,124.423842 137.029009,123.503842 C137.894919,121.710685 138.652936,119.867402 139.299009,117.983842 C140.559571,114.2423 141.398107,110.371619 141.799009,106.443842 C142.194513,102.549367 142.124015,98.6216152 141.589009,94.7438417 C141.080435,90.8742296 140.106729,87.0801333 138.689009,83.4438417 C135.88636,76.1115561 131.402955,69.5388645 125.599009,64.2538417 C121.185259,60.2521931 116.109776,57.0478715 110.599009,54.7838417 C109.679009,54.3838417 108.739009,54.0538417 107.799009,53.7038417 C106.859009,53.3538417 105.899009,53.0438417 104.919009,52.8038417 C102.971453,52.2500805 100.995196,51.802752 98.9990088,51.4638417 C96.9847695,51.147541 94.9553075,50.9372513 92.9190088,50.8338417 C88.7636742,50.6214664 84.597822,50.9034419 80.5090088,51.6738417 C76.2987461,52.4381436 72.1867238,53.6690671 68.2490088,55.3438417 C64.1901673,57.1021136 60.3231167,59.2735597 56.7090088,61.8238417 Z" id="Path" fill="#199BDB" fill-rule="nonzero"></path>
            <path d="M50.8290088,88.4538417 C52.6357203,81.5466046 56.4664489,75.3373418 61.8290088,70.6238417 C63.1956408,69.4002707 64.6385401,68.2646555 66.1490088,67.2238417 C67.6930237,66.1895808 69.3031383,65.257585 70.9690088,64.4338417 C74.3521143,62.7622935 77.9492072,61.5643841 81.6590088,60.8738417 C89.2611033,59.4450514 97.1065505,60.0663363 104.389009,62.6738417 C108.0613,64.0082501 111.546593,65.8097128 114.759009,68.0338417 C117.958368,70.2875498 120.858275,72.9387979 123.389009,75.9238417 C125.906612,78.9205659 128.024326,82.2315949 129.689009,85.7738417 C133.014033,92.8476341 134.394701,100.679478 133.689009,108.463842 C133.327323,112.280751 132.463187,116.033187 131.119009,119.623842 C128.506072,126.659764 124.008814,132.841763 118.119009,137.493842 C112.553547,141.955809 105.779013,144.648207 98.6690088,145.223842 C110.669009,138.623842 118.389009,127.873842 120.669009,116.493842 C120.965931,115.082087 121.169704,113.652336 121.279009,112.213842 C121.412008,110.791268 121.465425,109.362375 121.439009,107.933842 C121.366055,105.111193 120.987173,102.304783 120.309009,99.5638417 C118.947763,94.1606447 116.376339,89.1374774 112.789009,84.8738417 C111.004838,82.74992 108.992773,80.8283978 106.789009,79.1438417 C104.554185,77.4833851 102.146959,76.0685533 99.6090088,74.9238417 C94.3802257,72.6170567 88.7013818,71.5099896 82.9890088,71.6838417 C71.2690088,71.9438417 59.3690088,77.7838417 50.8290088,88.4538417 Z" id="Path" fill="#41C9F9" fill-rule="nonzero"></path>
        </g>
    </g>
</svg>